<svg width="312" height="105" viewBox="0 0 312 105" fill="none" xmlns="http://www.w3.org/2000/svg">
<rect width="306.951" height="92.9688" rx="10" fill="#9C6B00"/>
<rect x="10.504" y="8.75" width="301.115" height="96.25" rx="10" fill="#FFB20C"/>
<path d="M95.4383 76.1881V42.7336H99.4895V72.5944H115.041V76.1881H95.4383ZM148.238 59.4608C148.238 62.9892 147.601 66.0385 146.327 68.6086C145.052 71.1786 143.305 73.1606 141.083 74.5546C138.861 75.9485 136.324 76.6455 133.471 76.6455C130.618 76.6455 128.08 75.9485 125.859 74.5546C123.637 73.1606 121.889 71.1786 120.615 68.6086C119.341 66.0385 118.704 62.9892 118.704 59.4608C118.704 55.9324 119.341 52.8832 120.615 50.3131C121.889 47.743 123.637 45.761 125.859 44.3671C128.08 42.9731 130.618 42.2762 133.471 42.2762C136.324 42.2762 138.861 42.9731 141.083 44.3671C143.305 45.761 145.052 47.743 146.327 50.3131C147.601 52.8832 148.238 55.9324 148.238 59.4608ZM144.317 59.4608C144.317 56.5641 143.833 54.1192 142.864 52.1263C141.905 50.1334 140.604 48.6251 138.959 47.6015C137.326 46.5778 135.496 46.066 133.471 46.066C131.445 46.066 129.61 46.5778 127.966 47.6015C126.332 48.6251 125.031 50.1334 124.062 52.1263C123.103 54.1192 122.624 56.5641 122.624 59.4608C122.624 62.3576 123.103 64.8025 124.062 66.7954C125.031 68.7883 126.332 70.2965 127.966 71.3202C129.61 72.3439 131.445 72.8557 133.471 72.8557C135.496 72.8557 137.326 72.3439 138.959 71.3202C140.604 70.2965 141.905 68.7883 142.864 66.7954C143.833 64.8025 144.317 62.3576 144.317 59.4608ZM177.919 53.1881C177.56 52.0882 177.086 51.1026 176.498 50.2314C175.921 49.3493 175.229 48.5979 174.423 47.9772C173.628 47.3564 172.724 46.8827 171.712 46.556C170.699 46.2293 169.588 46.066 168.379 46.066C166.397 46.066 164.595 46.5778 162.972 47.6015C161.35 48.6251 160.059 50.1334 159.101 52.1263C158.142 54.1192 157.663 56.5641 157.663 59.4608C157.663 62.3576 158.148 64.8025 159.117 66.7954C160.086 68.7883 161.399 70.2965 163.054 71.3202C164.709 72.3439 166.571 72.8557 168.641 72.8557C170.557 72.8557 172.245 72.4473 173.704 71.6306C175.175 70.8029 176.318 69.6377 177.135 68.1348C177.963 66.6211 178.376 64.8406 178.376 62.7932L179.618 63.0546H169.555V59.4608H182.297V63.0546C182.297 65.8098 181.709 68.2056 180.533 70.2421C179.367 72.2785 177.756 73.8576 175.697 74.9793C173.65 76.0901 171.298 76.6455 168.641 76.6455C165.678 76.6455 163.076 75.9485 160.832 74.5546C158.6 73.1606 156.857 71.1786 155.605 68.6086C154.364 66.0385 153.743 62.9892 153.743 59.4608C153.743 56.8145 154.097 54.435 154.805 52.3223C155.523 50.1988 156.536 48.391 157.843 46.899C159.15 45.4071 160.696 44.2636 162.482 43.4686C164.268 42.6737 166.234 42.2762 168.379 42.2762C170.143 42.2762 171.788 42.543 173.312 43.0766C174.848 43.5993 176.215 44.3453 177.413 45.3145C178.621 46.2729 179.629 47.4218 180.435 48.7613C181.24 50.0899 181.796 51.5655 182.101 53.1881H177.919ZM193.286 42.7336V76.1881H189.235V42.7336H193.286ZM227.937 42.7336V76.1881H224.017L205.787 49.9211H205.46V76.1881H201.409V42.7336H205.329L223.625 69.066H223.952V42.7336H227.937Z" fill="white"/>
</svg>
