<svg width="314" height="105" viewBox="0 0 314 105" fill="none" xmlns="http://www.w3.org/2000/svg">
<rect width="306.951" height="92.9688" rx="10" fill="#9C6B00"/>
<rect x="10.504" y="8.75" width="301.115" height="96.25" rx="10" fill="#FFB20C"/>
<path d="M42.6127 76.1881V42.7336H53.9166C56.5303 42.7336 58.6756 43.1801 60.3527 44.0731C62.0298 44.9552 63.2713 46.1694 64.0771 47.7158C64.883 49.2622 65.286 51.021 65.286 52.9921C65.286 54.9632 64.883 56.7111 64.0771 58.2357C63.2713 59.7603 62.0352 60.9582 60.3691 61.8294C58.7029 62.6898 56.5738 63.1199 53.982 63.1199H44.8343V59.4608H53.8513C55.6373 59.4608 57.0748 59.1995 58.1638 58.6767C59.2637 58.154 60.0587 57.4135 60.5487 56.4552C61.0497 55.4859 61.3002 54.3316 61.3002 52.9921C61.3002 51.6526 61.0497 50.4819 60.5487 49.48C60.0478 48.4781 59.2474 47.7049 58.1475 47.1604C57.0476 46.605 55.5937 46.3273 53.786 46.3273H46.6638V76.1881H42.6127ZM58.3598 61.1597L66.5928 76.1881H61.8882L53.786 61.1597H58.3598ZM72.0365 76.1881V42.7336H92.2268V46.3273H76.0876V57.6313H91.1814V61.225H76.0876V72.5944H92.4882V76.1881H72.0365ZM122.398 53.1881C122.039 52.0882 121.565 51.1026 120.977 50.2314C120.4 49.3493 119.708 48.5979 118.902 47.9772C118.107 47.3564 117.203 46.8827 116.191 46.556C115.178 46.2293 114.067 46.066 112.858 46.066C110.876 46.066 109.074 46.5778 107.451 47.6015C105.829 48.6251 104.538 50.1334 103.58 52.1263C102.621 54.1192 102.142 56.5641 102.142 59.4608C102.142 62.3576 102.627 64.8025 103.596 66.7954C104.565 68.7883 105.878 70.2965 107.533 71.3202C109.188 72.3439 111.05 72.8557 113.12 72.8557C115.036 72.8557 116.724 72.4473 118.184 71.6306C119.654 70.8029 120.797 69.6377 121.614 68.1348C122.442 66.6211 122.855 64.8406 122.855 62.7932L124.097 63.0546H114.034V59.4608H126.776V63.0546C126.776 65.8098 126.188 68.2056 125.012 70.2421C123.846 72.2785 122.235 73.8576 120.176 74.9793C118.129 76.0901 115.777 76.6455 113.12 76.6455C110.157 76.6455 107.555 75.9485 105.311 74.5546C103.079 73.1606 101.336 71.1786 100.084 68.6086C98.8426 66.0385 98.2219 62.9892 98.2219 59.4608C98.2219 56.8145 98.5758 54.435 99.2836 52.3223C100.002 50.1988 101.015 48.391 102.322 46.899C103.629 45.4071 105.175 44.2636 106.961 43.4686C108.747 42.6737 110.713 42.2762 112.858 42.2762C114.622 42.2762 116.267 42.543 117.791 43.0766C119.327 43.5993 120.694 44.3453 121.892 45.3145C123.1 46.2729 124.108 47.4218 124.914 48.7613C125.719 50.0899 126.275 51.5655 126.58 53.1881H122.398ZM137.765 42.7336V76.1881H133.714V42.7336H137.765ZM164.184 51.0972C163.987 49.4419 163.193 48.1569 161.799 47.2421C160.405 46.3273 158.695 45.8699 156.669 45.8699C155.188 45.8699 153.892 46.1095 152.782 46.5887C151.682 47.0678 150.821 47.7267 150.201 48.5652C149.591 49.4038 149.286 50.3567 149.286 51.4239C149.286 52.3169 149.498 53.0847 149.923 53.7272C150.358 54.3588 150.914 54.887 151.589 55.3117C152.264 55.7255 152.972 56.0686 153.713 56.3408C154.453 56.6022 155.134 56.8145 155.755 56.9779L159.152 57.8927C160.023 58.1213 160.993 58.4372 162.06 58.8401C163.138 59.243 164.167 59.793 165.147 60.49C166.138 61.176 166.955 62.0581 167.598 63.1363C168.24 64.2144 168.561 65.5375 168.561 67.1057C168.561 68.9135 168.088 70.547 167.14 72.0063C166.204 73.4656 164.831 74.6254 163.024 75.4857C161.227 76.346 159.043 76.7762 156.473 76.7762C154.077 76.7762 152.003 76.3896 150.25 75.6164C148.507 74.8432 147.135 73.7651 146.133 72.382C145.142 70.999 144.581 69.3927 144.451 67.5631H148.632C148.741 68.8264 149.166 69.8718 149.907 70.6995C150.658 71.5162 151.605 72.1261 152.749 72.529C153.903 72.9211 155.145 73.1171 156.473 73.1171C158.02 73.1171 159.408 72.8666 160.639 72.3657C161.869 71.8538 162.844 71.146 163.563 70.2421C164.282 69.3273 164.641 68.2601 164.641 67.0404C164.641 65.9296 164.331 65.0257 163.71 64.3287C163.089 63.6318 162.272 63.0655 161.259 62.6299C160.247 62.1943 159.152 61.8131 157.976 61.4864L153.86 60.3103C151.246 59.5588 149.177 58.4862 147.652 57.0922C146.128 55.6983 145.365 53.8742 145.365 51.6199C145.365 49.7468 145.872 48.1133 146.884 46.7194C147.908 45.3145 149.28 44.2255 151.001 43.4523C152.733 42.6682 154.666 42.2762 156.8 42.2762C158.956 42.2762 160.873 42.6628 162.55 43.436C164.227 44.1983 165.556 45.2437 166.536 46.5723C167.527 47.9009 168.05 49.4092 168.104 51.0972H164.184ZM173.392 46.3273V42.7336H198.483V46.3273H187.964V76.1881H183.912V46.3273H173.392ZM204.736 76.1881V42.7336H216.04C218.653 42.7336 220.799 43.1801 222.476 44.0731C224.153 44.9552 225.394 46.1694 226.2 47.7158C227.006 49.2622 227.409 51.021 227.409 52.9921C227.409 54.9632 227.006 56.7111 226.2 58.2357C225.394 59.7603 224.158 60.9582 222.492 61.8294C220.826 62.6898 218.697 63.1199 216.105 63.1199H206.957V59.4608H215.974C217.76 59.4608 219.198 59.1995 220.287 58.6767C221.387 58.154 222.182 57.4135 222.672 56.4552C223.173 55.4859 223.423 54.3316 223.423 52.9921C223.423 51.6526 223.173 50.4819 222.672 49.48C222.171 48.4781 221.37 47.7049 220.271 47.1604C219.171 46.605 217.717 46.3273 215.909 46.3273H208.787V76.1881H204.736ZM220.483 61.1597L228.716 76.1881H224.011L215.909 61.1597H220.483ZM262.387 59.4608C262.387 62.9892 261.75 66.0385 260.476 68.6086C259.201 71.1786 257.454 73.1606 255.232 74.5546C253.01 75.9485 250.473 76.6455 247.62 76.6455C244.767 76.6455 242.229 75.9485 240.008 74.5546C237.786 73.1606 236.038 71.1786 234.764 68.6086C233.49 66.0385 232.853 62.9892 232.853 59.4608C232.853 55.9324 233.49 52.8832 234.764 50.3131C236.038 47.743 237.786 45.761 240.008 44.3671C242.229 42.9731 244.767 42.2762 247.62 42.2762C250.473 42.2762 253.01 42.9731 255.232 44.3671C257.454 45.761 259.201 47.743 260.476 50.3131C261.75 52.8832 262.387 55.9324 262.387 59.4608ZM258.466 59.4608C258.466 56.5641 257.982 54.1192 257.013 52.1263C256.054 50.1334 254.753 48.6251 253.108 47.6015C251.475 46.5778 249.645 46.066 247.62 46.066C245.594 46.066 243.759 46.5778 242.115 47.6015C240.481 48.6251 239.18 50.1334 238.211 52.1263C237.252 54.1192 236.773 56.5641 236.773 59.4608C236.773 62.3576 237.252 64.8025 238.211 66.7954C239.18 68.7883 240.481 70.2965 242.115 71.3202C243.759 72.3439 245.594 72.8557 247.62 72.8557C249.645 72.8557 251.475 72.3439 253.108 71.3202C254.753 70.2965 256.054 68.7883 257.013 66.7954C257.982 64.8025 258.466 62.3576 258.466 59.4608Z" fill="white"/>
</svg>
