<svg width="54" height="65" viewBox="0 0 54 65" fill="none" xmlns="http://www.w3.org/2000/svg">
<path d="M15.4286 0C17.5621 0 19.2857 1.81543 19.2857 4.0625V8.125H34.7143V4.0625C34.7143 1.81543 36.4379 0 38.5714 0C40.7049 0 42.4286 1.81543 42.4286 4.0625V8.125H48.2143C51.4085 8.125 54 10.8545 54 14.2188V20.3125H0V14.2188C0 10.8545 2.59152 8.125 5.78571 8.125H11.5714V4.0625C11.5714 1.81543 13.2951 0 15.4286 0ZM0 24.375H54V58.9062C54 62.2705 51.4085 65 48.2143 65H5.78571C2.59152 65 0 62.2705 0 58.9062V24.375ZM7.71429 34.5312V38.5938C7.71429 39.7109 8.58214 40.625 9.64286 40.625H13.5C14.5607 40.625 15.4286 39.7109 15.4286 38.5938V34.5312C15.4286 33.4141 14.5607 32.5 13.5 32.5H9.64286C8.58214 32.5 7.71429 33.4141 7.71429 34.5312ZM23.1429 34.5312V38.5938C23.1429 39.7109 24.0107 40.625 25.0714 40.625H28.9286C29.9893 40.625 30.8571 39.7109 30.8571 38.5938V34.5312C30.8571 33.4141 29.9893 32.5 28.9286 32.5H25.0714C24.0107 32.5 23.1429 33.4141 23.1429 34.5312ZM40.5 32.5C39.4393 32.5 38.5714 33.4141 38.5714 34.5312V38.5938C38.5714 39.7109 39.4393 40.625 40.5 40.625H44.3571C45.4179 40.625 46.2857 39.7109 46.2857 38.5938V34.5312C46.2857 33.4141 45.4179 32.5 44.3571 32.5H40.5ZM7.71429 50.7812V54.8438C7.71429 55.9609 8.58214 56.875 9.64286 56.875H13.5C14.5607 56.875 15.4286 55.9609 15.4286 54.8438V50.7812C15.4286 49.6641 14.5607 48.75 13.5 48.75H9.64286C8.58214 48.75 7.71429 49.6641 7.71429 50.7812ZM25.0714 48.75C24.0107 48.75 23.1429 49.6641 23.1429 50.7812V54.8438C23.1429 55.9609 24.0107 56.875 25.0714 56.875H28.9286C29.9893 56.875 30.8571 55.9609 30.8571 54.8438V50.7812C30.8571 49.6641 29.9893 48.75 28.9286 48.75H25.0714ZM38.5714 50.7812V54.8438C38.5714 55.9609 39.4393 56.875 40.5 56.875H44.3571C45.4179 56.875 46.2857 55.9609 46.2857 54.8438V50.7812C46.2857 49.6641 45.4179 48.75 44.3571 48.75H40.5C39.4393 48.75 38.5714 49.6641 38.5714 50.7812Z" fill="white"/>
</svg>
