<svg width="303" height="95" viewBox="0 0 303 95" fill="none" xmlns="http://www.w3.org/2000/svg">
<rect width="298" height="83.0242" rx="10" fill="#886416"/>
<rect x="10" y="7.7489" width="293" height="86.3452" rx="10" fill="#FFB20C"/>
<path d="M57.532 66V32.5455H71.3516C73.8563 32.5455 76.018 33.0355 77.8366 34.0156C79.6662 34.9848 81.0765 36.3407 82.0675 38.0831C83.0585 39.8146 83.554 41.8293 83.554 44.1271C83.554 46.4358 83.0476 48.456 82.0348 50.1875C81.0329 51.9081 79.6009 53.2422 77.7386 54.1896C75.8764 55.1371 73.6657 55.6108 71.1065 55.6108H62.5795V49.2401H69.6037C70.8234 49.2401 71.8416 49.0277 72.6584 48.603C73.486 48.1783 74.1122 47.5848 74.5369 46.8224C74.9616 46.0492 75.174 45.1508 75.174 44.1271C75.174 43.0926 74.9616 42.1996 74.5369 41.4482C74.1122 40.6858 73.486 40.0978 72.6584 39.6839C71.8307 39.2701 70.8125 39.0632 69.6037 39.0632H65.6179V66H57.532ZM87.5398 66V40.9091H95.299V45.483H95.5604C96.0178 43.8277 96.7637 42.5971 97.7983 41.7912C98.8329 40.9744 100.036 40.5661 101.408 40.5661C101.779 40.5661 102.16 40.5933 102.552 40.6477C102.944 40.6913 103.309 40.7621 103.646 40.8601V47.8026C103.265 47.6719 102.764 47.5684 102.143 47.4922C101.534 47.416 100.989 47.3778 100.51 47.3778C99.5625 47.3778 98.7076 47.5902 97.9453 48.0149C97.1939 48.4287 96.6004 49.0114 96.1648 49.7628C95.7401 50.5033 95.5277 51.3745 95.5277 52.3764V66H87.5398ZM117.311 66.4737C114.675 66.4737 112.41 65.9347 110.515 64.8565C108.631 63.7675 107.177 62.2538 106.154 60.3153C105.141 58.366 104.635 56.1063 104.635 53.5362C104.635 50.9553 105.141 48.6955 106.154 46.7571C107.177 44.8078 108.631 43.294 110.515 42.2159C112.41 41.1269 114.675 40.5824 117.311 40.5824C119.946 40.5824 122.206 41.1269 124.09 42.2159C125.985 43.294 127.439 44.8078 128.451 46.7571C129.475 48.6955 129.987 50.9553 129.987 53.5362C129.987 56.1063 129.475 58.366 128.451 60.3153C127.439 62.2538 125.985 63.7675 124.09 64.8565C122.206 65.9347 119.946 66.4737 117.311 66.4737ZM117.36 60.446C118.318 60.446 119.129 60.152 119.794 59.5639C120.458 58.9759 120.964 58.1591 121.313 57.1136C121.672 56.0682 121.852 54.8594 121.852 53.4872C121.852 52.0933 121.672 50.8736 121.313 49.8281C120.964 48.7827 120.458 47.9659 119.794 47.3778C119.129 46.7898 118.318 46.4957 117.36 46.4957C116.369 46.4957 115.53 46.7898 114.844 47.3778C114.169 47.9659 113.652 48.7827 113.292 49.8281C112.944 50.8736 112.77 52.0933 112.77 53.4872C112.77 54.8594 112.944 56.0682 113.292 57.1136C113.652 58.1591 114.169 58.9759 114.844 59.5639C115.53 60.152 116.369 60.446 117.36 60.446ZM114.55 37.7237L117.85 30.3565H124.923L119.99 37.7237H114.55ZM139.976 40.9091L144.109 49.1747L148.388 40.9091H156.442L149.434 53.4545L156.703 66H148.715L144.109 57.669L139.616 66H131.514L138.8 53.4545L131.874 40.9091H139.976ZM160.089 66V40.9091H168.077V66H160.089ZM164.091 37.9851C162.969 37.9851 162.005 37.6148 161.199 36.8743C160.394 36.1229 159.991 35.219 159.991 34.1626C159.991 33.1172 160.394 32.2242 161.199 31.4837C162.005 30.7322 162.969 30.3565 164.091 30.3565C165.223 30.3565 166.187 30.7322 166.982 31.4837C167.788 32.2242 168.191 33.1172 168.191 34.1626C168.191 35.219 167.788 36.1229 166.982 36.8743C166.187 37.6148 165.223 37.9851 164.091 37.9851ZM173.161 66V40.9091H180.757V45.5156H181.034C181.557 43.991 182.439 42.7876 183.681 41.9055C184.922 41.0234 186.403 40.5824 188.124 40.5824C189.866 40.5824 191.358 41.0289 192.6 41.9219C193.841 42.8149 194.631 44.0128 194.968 45.5156H195.23C195.698 44.0237 196.613 42.8312 197.974 41.9382C199.335 41.0343 200.942 40.5824 202.793 40.5824C205.167 40.5824 207.095 41.3447 208.576 42.8693C210.057 44.383 210.797 46.4631 210.797 49.1094V66H202.809V50.9389C202.809 49.6866 202.488 48.7337 201.846 48.0803C201.203 47.416 200.37 47.0838 199.346 47.0838C198.246 47.0838 197.381 47.4432 196.749 48.1619C196.128 48.8698 195.818 49.8227 195.818 51.0206V66H188.14V50.8572C188.14 49.692 187.824 48.7718 187.193 48.0966C186.561 47.4214 185.728 47.0838 184.694 47.0838C183.997 47.0838 183.381 47.2526 182.848 47.5902C182.314 47.9169 181.895 48.3852 181.59 48.995C181.296 49.6049 181.149 50.3236 181.149 51.1513V66H173.161ZM227.459 66.4737C224.824 66.4737 222.559 65.9347 220.664 64.8565C218.78 63.7675 217.326 62.2538 216.302 60.3153C215.289 58.366 214.783 56.1063 214.783 53.5362C214.783 50.9553 215.289 48.6955 216.302 46.7571C217.326 44.8078 218.78 43.294 220.664 42.2159C222.559 41.1269 224.824 40.5824 227.459 40.5824C230.095 40.5824 232.354 41.1269 234.238 42.2159C236.133 43.294 237.587 44.8078 238.6 46.7571C239.623 48.6955 240.135 50.9553 240.135 53.5362C240.135 56.1063 239.623 58.366 238.6 60.3153C237.587 62.2538 236.133 63.7675 234.238 64.8565C232.354 65.9347 230.095 66.4737 227.459 66.4737ZM227.508 60.446C228.467 60.446 229.278 60.152 229.942 59.5639C230.606 58.9759 231.113 58.1591 231.461 57.1136C231.821 56.0682 232 54.8594 232 53.4872C232 52.0933 231.821 50.8736 231.461 49.8281C231.113 48.7827 230.606 47.9659 229.942 47.3778C229.278 46.7898 228.467 46.4957 227.508 46.4957C226.517 46.4957 225.679 46.7898 224.993 47.3778C224.317 47.9659 223.8 48.7827 223.441 49.8281C223.092 50.8736 222.918 52.0933 222.918 53.4872C222.918 54.8594 223.092 56.0682 223.441 57.1136C223.8 58.1591 224.317 58.9759 224.993 59.5639C225.679 60.152 226.517 60.446 227.508 60.446Z" fill="white"/>
</svg>
