<svg width="280" height="94" viewBox="0 0 280 94" fill="none" xmlns="http://www.w3.org/2000/svg">
<rect width="270" height="83" rx="10" fill="#886416"/>
<rect x="10" y="8" width="270" height="86" rx="10" fill="#FFB20C"/>
<path d="M46.2017 66V36.9091H58.2188C60.3968 36.9091 62.2765 37.3021 63.858 38.0881C65.4489 38.8646 66.6752 39.982 67.5369 41.4403C68.3987 42.8892 68.8295 44.608 68.8295 46.5966C68.8295 48.6136 68.3892 50.3277 67.5085 51.7386C66.6278 53.1402 65.3778 54.2102 63.7585 54.9489C62.1392 55.678 60.2216 56.0426 58.0057 56.0426H50.4062V50.5028H56.6989C57.7595 50.5028 58.6449 50.3655 59.3551 50.0909C60.0748 49.8068 60.6193 49.3807 60.9886 48.8125C61.358 48.2348 61.5426 47.4962 61.5426 46.5966C61.5426 45.697 61.358 44.9536 60.9886 44.3665C60.6193 43.7699 60.0748 43.3248 59.3551 43.0312C58.6354 42.7282 57.75 42.5767 56.6989 42.5767H53.233V66H46.2017ZM62.5795 52.7045L69.8239 66H62.1534L55.0511 52.7045H62.5795ZM72.6861 66V36.9091H92.9702V42.6193H79.7173V48.5852H91.9332V54.3097H79.7173V60.2898H92.9702V66H72.6861ZM116.464 46.4119C116.304 45.8153 116.067 45.2898 115.754 44.8352C115.442 44.3712 115.058 43.9782 114.604 43.6562C114.149 43.3343 113.628 43.0928 113.041 42.9318C112.454 42.7614 111.81 42.6761 111.109 42.6761C109.698 42.6761 108.477 43.017 107.445 43.6989C106.422 44.3807 105.631 45.375 105.072 46.6818C104.514 47.9792 104.234 49.5559 104.234 51.4119C104.234 53.2775 104.504 54.8684 105.044 56.1847C105.584 57.5009 106.365 58.5047 107.388 59.196C108.411 59.8873 109.651 60.233 111.109 60.233C112.397 60.233 113.486 60.0246 114.376 59.608C115.276 59.1818 115.958 58.5805 116.422 57.804C116.886 57.0275 117.118 56.1136 117.118 55.0625L118.425 55.2188H111.351V50.0909H123.893V53.9403C123.893 56.5445 123.339 58.7746 122.232 60.6307C121.133 62.4867 119.618 63.9119 117.686 64.9062C115.764 65.9006 113.553 66.3977 111.053 66.3977C108.278 66.3977 105.839 65.7964 103.737 64.5938C101.635 63.3911 99.9967 61.6771 98.8224 59.4517C97.6482 57.2169 97.0611 54.5653 97.0611 51.4972C97.0611 49.1108 97.4162 46.9943 98.1264 45.1477C98.8366 43.2917 99.8262 41.7197 101.095 40.4318C102.374 39.1439 103.851 38.1686 105.527 37.5057C107.213 36.8428 109.026 36.5114 110.967 36.5114C112.653 36.5114 114.22 36.7528 115.669 37.2358C117.127 37.7188 118.415 38.4006 119.533 39.2812C120.66 40.1619 121.573 41.2083 122.274 42.4205C122.975 43.6326 123.411 44.9631 123.581 46.4119H116.464ZM135.069 36.9091V66H128.038V36.9091H135.069ZM155.207 45.6307C155.113 44.589 154.691 43.7794 153.943 43.2017C153.205 42.6146 152.149 42.321 150.776 42.321C149.866 42.321 149.109 42.4394 148.503 42.6761C147.897 42.9129 147.442 43.2396 147.139 43.6562C146.836 44.0634 146.68 44.5322 146.67 45.0625C146.652 45.4981 146.737 45.8816 146.926 46.2131C147.125 46.5445 147.409 46.8381 147.778 47.0938C148.157 47.34 148.612 47.5578 149.142 47.7472C149.672 47.9366 150.269 48.1023 150.932 48.2443L153.432 48.8125C154.871 49.125 156.14 49.5417 157.239 50.0625C158.347 50.5833 159.275 51.2036 160.023 51.9233C160.78 52.643 161.353 53.4716 161.741 54.4091C162.13 55.3466 162.329 56.3977 162.338 57.5625C162.329 59.3996 161.865 60.9763 160.946 62.2926C160.027 63.6089 158.706 64.6174 156.983 65.3182C155.269 66.0189 153.2 66.3693 150.776 66.3693C148.342 66.3693 146.221 66.0047 144.412 65.2756C142.603 64.5464 141.197 63.4384 140.193 61.9517C139.189 60.465 138.673 58.5852 138.645 56.3125H145.378C145.435 57.25 145.686 58.0312 146.131 58.6562C146.576 59.2812 147.187 59.7547 147.963 60.0767C148.749 60.3987 149.658 60.5597 150.69 60.5597C151.637 60.5597 152.442 60.4318 153.105 60.1761C153.777 59.9205 154.294 59.5653 154.653 59.1108C155.013 58.6562 155.198 58.1354 155.207 57.5483C155.198 56.9991 155.027 56.5303 154.696 56.142C154.365 55.7443 153.853 55.4034 153.162 55.1193C152.48 54.8258 151.609 54.5559 150.548 54.3097L147.509 53.5994C144.99 53.0218 143.006 52.089 141.557 50.8011C140.108 49.5038 139.388 47.7519 139.398 45.5455C139.388 43.7462 139.871 42.1695 140.847 40.8153C141.822 39.4612 143.171 38.4053 144.895 37.6477C146.618 36.8902 148.583 36.5114 150.79 36.5114C153.044 36.5114 154.999 36.8949 156.656 37.6619C158.323 38.4195 159.616 39.4848 160.534 40.858C161.453 42.2311 161.921 43.822 161.94 45.6307H155.207ZM164.938 42.6193V36.9091H189.526V42.6193H180.705V66H173.773V42.6193H164.938ZM192.96 66V36.9091H213.244V42.6193H199.991V48.5852H212.207V54.3097H199.991V60.2898H213.244V66H192.96ZM217.647 66V36.9091H229.664C231.842 36.9091 233.722 37.3021 235.303 38.0881C236.894 38.8646 238.121 39.982 238.982 41.4403C239.844 42.8892 240.275 44.608 240.275 46.5966C240.275 48.6136 239.835 50.3277 238.954 51.7386C238.073 53.1402 236.823 54.2102 235.204 54.9489C233.585 55.678 231.667 56.0426 229.451 56.0426H221.852V50.5028H228.144C229.205 50.5028 230.09 50.3655 230.8 50.0909C231.52 49.8068 232.065 49.3807 232.434 48.8125C232.803 48.2348 232.988 47.4962 232.988 46.5966C232.988 45.697 232.803 44.9536 232.434 44.3665C232.065 43.7699 231.52 43.3248 230.8 43.0312C230.081 42.7282 229.195 42.5767 228.144 42.5767H224.678V66H217.647ZM234.025 52.7045L241.269 66H233.599L226.496 52.7045H234.025Z" fill="white"/>
</svg>
