<svg width="60" height="62" viewBox="0 0 60 62" fill="none" xmlns="http://www.w3.org/2000/svg">
<path d="M46.7578 46.5242C44.168 41.8742 39.3047 38.75 33.75 38.75H26.25C20.6953 38.75 15.832 41.8742 13.2422 46.5242C17.3672 51.2711 23.3438 54.25 30 54.25C36.6562 54.25 42.6328 51.259 46.7578 46.5242ZM0 31C0 22.7783 3.16071 14.8933 8.7868 9.07969C14.4129 3.26606 22.0435 0 30 0C37.9565 0 45.5871 3.26606 51.2132 9.07969C56.8393 14.8933 60 22.7783 60 31C60 39.2217 56.8393 47.1067 51.2132 52.9203C45.5871 58.7339 37.9565 62 30 62C22.0435 62 14.4129 58.7339 8.7868 52.9203C3.16071 47.1067 0 39.2217 0 31ZM30 32.9375C32.2378 32.9375 34.3839 32.0189 35.9662 30.3838C37.5485 28.7488 38.4375 26.5311 38.4375 24.2188C38.4375 21.9064 37.5485 19.6887 35.9662 18.0537C34.3839 16.4186 32.2378 15.5 30 15.5C27.7622 15.5 25.6161 16.4186 24.0338 18.0537C22.4514 19.6887 21.5625 21.9064 21.5625 24.2188C21.5625 26.5311 22.4514 28.7488 24.0338 30.3838C25.6161 32.0189 27.7622 32.9375 30 32.9375Z" fill="white"/>
</svg>
