<svg width="55" height="61" viewBox="0 0 55 61" fill="none" xmlns="http://www.w3.org/2000/svg">
<path d="M17.6786 17.1562V22.875H37.3214V17.1562C37.3214 11.8902 32.9263 7.625 27.5 7.625C22.0737 7.625 17.6786 11.8902 17.6786 17.1562ZM9.82143 22.875V17.1562C9.82143 7.68457 17.74 0 27.5 0C37.26 0 45.1786 7.68457 45.1786 17.1562V22.875H47.1429C51.4766 22.875 55 26.2943 55 30.5V53.375C55 57.5807 51.4766 61 47.1429 61H7.85714C3.52344 61 0 57.5807 0 53.375V30.5C0 26.2943 3.52344 22.875 7.85714 22.875H9.82143Z" fill="white"/>
</svg>
